<svg xmlns="http://www.w3.org/2000/svg" width="2668" height="820"><g fill="none" fill-rule="evenodd"><ellipse cx="1909.317" cy="408.5" stroke="#000" rx="397.033" ry="250.418" transform="rotate(-28 1909.317 408.5)"/><ellipse cx="354.771" cy="429.694" stroke="#000" rx="299.511" ry="188.863" transform="rotate(34 354.77 429.694)"/><circle cx="1508.489" cy="447" r="167.5" stroke="#000"/><path fill="#E3E3E3" stroke="#000" d="M1621.048 323.037c33.766 30.595 54.94 74.806 54.94 123.963 0 35.995-11.353 69.338-30.674 96.643-19.783 27.956-47.917 49.583-80.77 61.245a158.704 158.704 0 01-5.787-9.992c-20.385-38.339-24.077-82.622-13.573-128.516 10.908-47.659 37.122-97.051 75.864-143.343z"/><circle cx="874.489" cy="412" r="342.5" stroke="#000"/><path fill="#E3E3E3" stroke="#000" d="M539.491 340.365l.58.623c40.227 43.364 67.47 91.062 78.748 136.347 11.057 44.402 6.76 86.482-15.742 119.843a120.864 120.864 0 01-8.92 11.637C554.985 553.132 531.989 485.252 531.989 412c0-24.59 2.591-48.576 7.515-71.691l-.013.056z"/><path stroke="#000" d="M1086.489 186c39.632 37.866 64.632 81.866 75 132"/><ellipse cx="1177.489" cy="555.5" stroke="#000" rx="244.5" ry="154"/><path fill="#FF9270" stroke="#000" d="M1177.489 401.5c13.408 0 26.563.68 39.385 1.988h0l.069 2.844.046 5.668c0 116.74-58.406 219.839-147.595 281.664-41.053-12.771-75.603-32.588-99.666-56.953-23.278-23.57-36.74-51.397-36.74-81.211 0-42.512 27.362-80.974 71.526-108.825 44.268-27.916 105.426-45.175 172.975-45.175z"/><path fill="#8EC5FF" stroke="#000" d="M1341.078 441.476c25.218 13.899 45.677 31.46 59.717 51.231 13.616 19.173 21.194 40.424 21.194 62.793 0 10.864-1.787 21.465-5.193 31.691-45.654-29.916-75.807-81.532-75.807-140.191 0-1.85.03-3.693.09-5.524z"/><ellipse cx="1337.989" cy="616.5" stroke="#000" rx="19" ry="11"/><path stroke="#000" d="M2515.063 346.042c41.729 7.358 76.525 30.934 99.049 63.102 22.524 32.168 32.777 72.93 25.419 114.658-7.358 41.729-30.933 76.525-63.101 99.049-32.169 22.525-72.93 32.777-114.658 25.419h0l-355.738-62.726c-41.729-7.358-76.525-30.933-99.05-63.102-22.524-32.168-32.777-72.928-25.419-114.658 7.358-41.728 30.933-76.525 63.101-99.049 32.17-22.524 72.93-32.777 114.66-25.419h0z"/><path fill="#FF9270" stroke="#000" d="M2044.667 308.735c32.168-22.524 72.929-32.777 114.658-25.419h0l119.819 21.124c-1.134 93.035-68.611 199.65-179.46 279.845-40.002-8.778-73.145-32.616-94.475-64.436-21.283-31.75-30.805-71.449-23.643-112.064 7.357-41.73 30.933-76.525 63.101-99.05z"/><path fill="#000" fill-rule="nonzero" d="M542.874 377.982c.085.117.316.145.469.108.17-.034.886-.285 1.573-.454 2.012-.488 3.974-.924 4.755-1.043.57-.083.9-.083 1.283.238.197.17.366.258.475.179.088-.064.088-.229-.069-.445-.235-.323-.403-.471-.674-.844-.249-.343-.394-.583-.55-.799-.129-.176-.291-.298-.41-.212-.058.042-.1.192-.029.412.21.64.163.72-.438.902-.794.248-3.168.818-4.347 1.091-.098.01-.113-.053-.093-.128.113-.38 2.292-3.733 2.593-4.041.259-.263.422-.202.676.003.17.132.344.185.422.128.098-.071.108-.243-.027-.43-.193-.264-.44-.564-.696-.917-.264-.363-.5-.79-.736-1.114-.114-.157-.296-.265-.394-.194-.089.065-.102.21-.034.43.212.64.176.756.014 1.07-.235.44-2.385 3.83-2.763 4.404-.355.542-.825 1.154-.936 1.31-.09.125-.114.277-.064.346zm8.39.514a.686.686 0 00.936.114.894.894 0 00.281-.46.53.53 0 00-.102-.388c-.25-.344-.65-.399-.973-.164-.128.093-.168.183-.223.313-.048.2-.025.44.08.585zm-4.446 4.564c.093.127.246.255.334.191.098-.07.115-.233.056-.398-.16-.425-.09-.536-.018-.603.08-.073.253-.229 1.53-1.172l1.795-1.303c.03-.021.114-.173.086-.212-.121-.167-.56-.462-1.094-.825-.061-.044-.16-.077-.21-.041-.039.028-.129.153-.118.25.021.42-.024.586-.094.653-.035.036-.274.211-.486.368l-.272.197c-.559.407-1.24.872-1.46 1.002-.431.253-.524.29-.944-.063-.14-.109-.28-.157-.368-.093-.088.065-.077.205.066.401.1.138.265.302.629.803.156.215.418.639.568.845zm1.337 2.044c.178.245.566.637 1.03.78.231.071.405.064.514-.014.078-.057.112-.156.083-.196-.043-.059-.131-.098-.216-.173-.145-.118-.287-.21-.416-.386-.085-.118-.213-.46-.169-.687.053-.217.18-.371.63-.682l1.805-1.266c.109-.08.183-.059.197-.039.164.225.55.738.815 1.102.079.107.162.181.292.132.033-.016.103-.063.177-.115l.144-.104c.05-.052.124-.179.074-.248-.06-.082-.187-.246-.328-.426l-.217-.276c-.176-.226-.335-.427-.37-.476-.05-.068.02-.135.06-.163.058-.043.38-.261.488-.34.048-.035.11-.155.081-.195-.035-.049-.228-.193-.539-.207-.353-.013-.843-.212-1.101-.279-.143-.03-.316-.084-.356-.055-.048.035-.164.33-.07.5.16.304.172.34.064.418-.932.677-1.565 1.063-2.252 1.562-.353.256-.536.479-.596.643-.158.443-.017.926.175 1.19zm4.203 5.643c.314.43.746.88 1.195 1.169.63.412 1.562.708 2.523.01.737-.535.855-1.505.566-2.358-.017-.063.06-.164.084-.151.22.138.605.294.759.301.331.045.671-.023 1.035-.287.402-.292.669-.77.684-1.306.021-.404-.142-1.02-.662-1.736-.477-.657-.988-1.215-1.244-1.568l-.364-.5c-.178-.245-.337-.34-.435-.269-.117.085-.095.28-.027.395.323.59.3.741-.013 1.013-.124.111-.382.306-.676.522l-1.045.76-.431.311-.372.27c-1.374.99-1.435 1.01-1.6 1.103-.564.336-.734.145-1.107-.184-.244-.212-.379-.294-.525-.187-.108.078-.032.307.068.445.135.186.293.34.525.681.276.4.614.947 1.063 1.564zm3.205-2.869c-.092-.127-.145-.284-.094-.336.168-.181 1.283-.976 1.962-1.425.104-.06.173-.051.222-.025.047.025.19.16.276.278.727 1 .446 1.789-.143 2.217-.618.449-1.151.311-1.282.256-.168-.087-.57-.454-.94-.965zm-2.658 2.816c-.129-.177-.3-.906-.003-1.24.264-.298 1.587-1.26 1.805-1.373a.518.518 0 01.328-.043c.055.034.277.278.384.426.605.833.748 1.853-.174 2.523-.304.221-.65.322-.964.385-.267.044-1.02-.187-1.376-.678zm3.08 5.167c.263.364.687.7 1.282.898.844.255 1.664.228 2.34-.263.833-.605 1.293-1.644.61-2.585a1.607 1.607 0 00-.576-.482c-.266-.12-.693-.336-.828-.357-.111-.008-.31.09-.407.161-.04.029-.052.157.028.204.114.054.55.2.75.475.512.706.16 1.502-.486 1.972-.941.683-1.631.375-1.96-.076-.676-.932-.22-1.953.713-2.63 1.687-1.226 4.538-.765 6.175.188.127.073.225.062.254.04.06-.043.107-.287.071-.336-.192-.265-.988-.72-1.779-1.045-1.723-.68-4.054-.755-5.427.243-1.294.94-1.665 2.348-.76 3.593zM1176.378 421c.145 0 .303-.173.364-.32.072-.16.29-.9.557-1.566.787-1.948 1.587-3.821 1.95-4.536.267-.518.46-.79.946-.912.254-.062.424-.148.424-.284 0-.11-.134-.21-.4-.21-.4 0-.618.05-1.079.05-.424 0-.702-.025-.969-.025-.218 0-.412.062-.412.21 0 .074.097.197.315.271.642.21.679.296.473.9-.267.801-1.2 3.094-1.672 4.228-.049.086-.11.061-.158 0-.242-.32-1.672-4.117-1.744-4.549-.061-.37.084-.468.4-.554.205-.062.35-.173.35-.272 0-.123-.132-.234-.363-.234-.327 0-.715.025-1.15.025-.449 0-.934-.062-1.333-.062-.194 0-.388.087-.388.21 0 .11.109.21.327.283.642.21.715.308.872.629.218.456 1.697 4.253 1.939 4.906.23.616.448 1.368.509 1.553.048.148.157.259.242.259zm5.346-6.595c.218 0 .642-.21.642-.702a.922.922 0 00-.206-.506.528.528 0 00-.376-.148c-.424 0-.702.296-.702.703 0 .16.048.246.12.37.134.16.34.283.522.283zm1.078 6.385c.158 0 .351-.049.351-.16 0-.123-.12-.234-.29-.283-.437-.124-.485-.247-.497-.345-.012-.111-.036-.346-.049-1.96v-2.256c0-.037-.072-.197-.12-.197-.207 0-.703.184-1.31.406-.072.025-.157.087-.157.148 0 .05.049.198.134.247.35.234.46.37.472.468.008.05.01.35.012.62v.342c0 .702-.024 1.54-.048 1.8-.049.505-.073.603-.606.739-.17.05-.29.136-.29.247 0 .11.12.184.363.184.17 0 .4-.037 1.017-.037.267 0 .764.037 1.018.037zm2.438.124c.303 0 .848-.087 1.236-.382.194-.148.29-.296.29-.432 0-.098-.06-.185-.108-.185-.073 0-.158.05-.267.074-.182.05-.34.111-.557.111-.146 0-.497-.098-.655-.271-.145-.173-.193-.37-.181-.925l.036-2.243c0-.136.06-.185.085-.185.279 0 .92-.012 1.369-.012.133 0 .242-.025.279-.16.007-.037.01-.123.011-.215v-.18c-.011-.074-.072-.21-.157-.21-.101 0-.308.007-.537.015l-.35.014c-.287.01-.542.02-.603.02-.085 0-.097-.098-.097-.147 0-.074.012-.468.012-.604 0-.062-.06-.185-.109-.185-.06 0-.29.074-.484.32-.219.284-.667.568-.873.74-.109.099-.254.21-.254.259 0 .062.17.333.363.357.34.05.376.062.376.198 0 1.17-.06 1.923-.06 2.785 0 .444.072.728.169.876.266.394.739.567 1.066.567zm8.499.061c.739 0 1.878-.234 2.253-.419.036-.024.194-.185.218-.259.073-.258.279-1.047.279-1.158 0-.235-.085-.42-.218-.42-.121 0-.218.16-.412.555-.218.407-.557.728-.667.79-.363.172-.945.332-1.296.332-.8 0-1.769-.444-2.387-1.233-.375-.468-.715-1.553-.715-2.354 0-.875.364-1.935 1.018-2.552.46-.443 1.236-.727 1.818-.727.508 0 1.054.111 1.43.333.484.271.726.666.835 1.183.049.173.121.358.243.358.145 0 .278-.136.278-.481 0-.308-.06-1.048-.06-1.27 0-.074-.122-.197-.182-.197-.097 0-.485-.136-.788-.222-.4-.11-.92-.234-1.49-.234-1.32 0-2.205.407-2.75.789-1.066.752-1.672 1.874-1.672 3.279 0 1.097.436 2.034.97 2.625.762.863 1.986 1.282 3.295 1.282zm1045.976-102.027c.145.017.321-.132.4-.269.091-.147.395-.843.74-1.46 1.016-1.805 2.035-3.536 2.48-4.19.328-.473.552-.713 1.05-.774.259-.029.438-.093.454-.225.013-.109-.107-.221-.372-.254-.397-.048-.62-.026-1.077-.082-.42-.052-.695-.111-.96-.144-.216-.026-.416.01-.434.155-.008.072.073.204.28.303.614.283.64.372.362.936-.36.75-1.562 2.873-2.167 3.923-.058.078-.116.047-.156-.019-.203-.343-1.167-4.223-1.188-4.652-.015-.369.14-.446.464-.493.212-.035.37-.126.382-.222.014-.12-.105-.244-.334-.272-.324-.04-.712-.064-1.145-.117-.446-.054-.92-.174-1.317-.223-.192-.023-.395.037-.41.157-.013.11.084.218.292.317.612.283.672.388.79.72.163.471 1.175 4.358 1.337 5.024.155.63.281 1.391.32 1.58.03.149.125.27.209.28zm6.1-5.785a.685.685 0 00.72-.607.897.897 0 00-.143-.52.53.53 0 00-.356-.189c-.42-.052-.733.202-.782.6-.019.156.02.246.076.375.114.174.303.32.484.342zm.305 6.365c.156.019.354-.007.367-.114.015-.122-.092-.244-.253-.314-.42-.172-.453-.3-.453-.397.001-.11.005-.34.187-1.918l.27-2.202c.005-.037-.049-.201-.097-.207-.205-.025-.72.095-1.348.237-.075.015-.166.065-.174.125-.006.049.024.198.103.257.321.272.412.417.413.515.002.05-.032.343-.063.606l-.041.334c-.084.685-.208 1.5-.264 1.75-.108.488-.143.582-.69.649-.174.027-.304.096-.317.204-.013.11.097.196.338.225.169.021.402.013 1.015.089.265.032.754.129 1.007.16zm2.406.416c.3.037.852.02 1.272-.222.21-.12.325-.253.341-.386.012-.096-.037-.187-.087-.193-.071-.009-.162.028-.273.039-.186.026-.35.068-.566.041-.145-.018-.481-.158-.618-.345-.123-.186-.148-.384-.07-.925l.306-2.185c.016-.132.082-.172.106-.17.278.035.916.101 1.36.156.134.016.245.004.297-.123a1.62 1.62 0 00.037-.208l.022-.176c-.003-.074-.047-.213-.13-.223a17.14 17.14 0 00-.536-.051l-.35-.03c-.285-.025-.54-.046-.6-.054-.085-.01-.085-.107-.079-.155.01-.073.068-.455.084-.588.008-.06-.037-.188-.087-.194-.06-.008-.296.037-.518.253-.25.252-.73.473-.956.616-.12.083-.278.174-.284.221-.007.06.13.347.319.394.331.09.366.106.35.239-.14 1.142-.29 1.868-.394 2.712-.053.433-.016.717.063.874.218.418.666.643.991.683zm6.994.774c.529.065 1.153.056 1.67-.077.73-.178 1.583-.66 1.728-1.84.11-.901-.518-1.65-1.34-2.02-.057-.03-.079-.156-.052-.165.252-.067.628-.24.738-.349.258-.213.44-.508.495-.952a1.675 1.675 0 00-.488-1.391c-.281-.292-.844-.593-1.721-.7-.806-.1-1.563-.107-1.996-.16l-.614-.075c-.3-.037-.477.014-.492.134-.018.145.14.262.27.29.65.165.746.287.732.7-.005.166-.037.488-.08.85l-.157 1.283-.066.528-.057.455c-.212 1.68-.24 1.74-.283 1.923-.14.642-.396.635-.89.684-.323.034-.474.076-.496.257-.016.133.203.232.372.253.228.028.45.019.856.08.481.072 1.113.198 1.87.291zm.088-4.301c-.156-.02-.307-.086-.31-.16-.02-.246.16-1.605.295-2.406.027-.119.08-.162.133-.18.05-.017.248-.03.391-.012 1.227.15 1.614.894 1.525 1.616-.093.757-.558 1.055-.687 1.113-.179.063-.721.107-1.347.03zm.245 3.865c-.216-.026-.866-.4-.91-.844-.037-.395.163-2.02.23-2.256a.52.52 0 01.19-.27 2.98 2.98 0 01.573.01c1.023.126 1.867.717 1.728 1.849-.046.372-.208.695-.376.967-.15.226-.832.618-1.435.544zm7.855 1.404c.084.01.177-.05.195-.098.057-.164.375-.76.649-1.203.087-.111.008-.364-.125-.38-.036-.005-.158.1-.281.208-.344.313-.65.41-.739.435-.123.022-.366.004-.582-.022l-.307-.04c-.54-.068-1.373-.189-1.568-.312-.033-.03-.057-.13-.03-.151l.038-.03.262-.205a91.313 91.313 0 002.016-1.618c.782-.698 1.08-1.247 1.153-1.837.148-1.203-.614-2.15-1.805-2.297-.904-.111-1.825.435-2.285 1-.13.156-.196.294-.205.367-.014.12.11.209.157.214.05.006.191-.062.328-.18.337-.263.955-.614 1.544-.542.639.079 1.192.634 1.086 1.5-.108.879-.738 1.633-1.452 2.278-.724.631-1.712 1.414-2.326 1.839-.134.093-.188.245-.184.307.003.074.147.201.326.223l.639.079c.576.07 1.86.264 3.496.465zM1404.78 547.658c.006.145.146.322.44.41.355.108 1.217.454 1.525.588.38.17 3.25 1.379 3.718 1.618.026.01.09.142.005.145l-2.014.07-.49.016c-.796.026-1.476.047-1.627.047-.667.01-.802-.058-.938-.49-.07-.253-.16-.406-.294-.402-.12.004-.199.19-.192.383.01.29.054.519.067.883.011.327-.022 1.48-.017 1.626.008.23.11.347.232.343.071-.002.178-.115.252-.384.153-.503.242-.737 1.125-.804a94.29 94.29 0 014.841-.302c.206-.007.43.155.612.876.084.3.147.37.256.367.182-.007.22-.274.217-.396-.014-.387-.108-1.354-.115-1.56-.003-.073-.117-.202-.19-.212-.208-.053-.466-.165-1.008-.402l-4.253-1.95c-.148-.067-.163-.139-.116-.166.643-.373 3.55-1.895 4.158-2.182.584-.276.87-.419 1.05-.473.06-.027.166-.14.164-.212-.003-.073 0-1.383-.011-1.685-.005-.146-.133-.348-.267-.343-.084.003-.165.152-.182.333-.118.805-.248.931-.937.956-.152.005-1.193-.042-2.275-.103l-.54-.032c-.802-.05-1.548-.105-1.877-.15-.513-.068-.811-.313-.965-.865-.082-.287-.17-.37-.279-.366-.158.005-.212.165-.204.395.006.158.093.932.106 1.32.012.35-.009.775-.003.945.007.182.087.385.22.38.108-.003.216-.056.267-.336.125-.575.192-.735.919-.76.618-.022 3.021.004 4.09.076.098.008.004.109-.008.12-.847.382-2.371 1.2-3.458 1.686-.31.133-1.293.518-1.601.675-.204.092-.406.208-.403.317zm-2.728 7.666c.035.982.335 1.565.63 2.029.345.509 1.006 1.019 1.768.992.388-.013.804-.246 1.002-.507.29-.374.326-.727.318-.946-.013-.374.006-1.249-.02-1.975-.002-.061.044-.463.396-.475.109-.004.32.146.385.266.039.058.064.082.067.18.002.071-.003.254 0 .327.017.52.21 1.144.537 1.509.404.446.859.625 1.404.606a1.8 1.8 0 00.84-.26c-.003.267-.046.79-.036 1.057 0 .012.09.141.212.137.17-.006.493-.101.49-.198l-.053-1.159-.005-.162c-.004-.12.026-.29.068-.45.053-.196.162-.576.147-1.012-.017-.485-.307-1.142-.522-1.389-.403-.435-.811-.652-1.453-.63-.751.027-1.173.455-1.47.962-.01.037-.059.038-.11.004-.15-.116-.516-.576-.647-.838-.014-.036-.087-.058-.124-.056-.496.017-.695.242-.811.38a.937.937 0 00-.158.357c-.01.036-.096.027-.12-.02-.19-.2-.47-.542-.621-.73-.09-.119-.445-.24-.639-.234-1.163.041-1.502 1.46-1.475 2.235zm5.053.176c-.018-.51.335-1.176 1.4-1.214.546-.019 1.197.238 1.218.843.03.873-.685 1.213-1.277 1.234-.534.018-.94-.162-1.066-.242-.098-.07-.266-.342-.275-.621zm-4.415.36c-.03-.848.302-1.77 1.138-1.799.29-.01.56.091.818.482.013.024.194.369.214.963a6.99 6.99 0 01-.035 1.044c-.058.427-.273.87-.818.901-.496.03-.809-.226-1.027-.57-.191-.273-.281-.779-.29-1.02zm217.928-199.135c.182-.242.16-.412.1-.577-.098-.271-.438-.968-.772-1.371-.196-.223-.334-.283-.421-.167-.081.107-.073.28.129.796.29.764.201 1.245-.057 1.626a24.38 24.38 0 01-1.737 2.244c-.045.041-.184-.017-.22-.09-.113-.287-.609-1.576-1.118-2.96l-.204-.555a57.14 57.14 0 01-.853-2.481l-.088-.29-.097-.306c-.098-.301-.193-.565-.236-.617-.068-.05-.245-.078-.304 0-.236.353-.693 1.041-.86 1.263-.41.543-1.287 1.688-1.6 2.042-.166.18-.426.485-.757.783-.053.05.007.293.048.339.349.384.761 1.044.824 1.122.126.155.281.272.34.194.11-.145.143-.271.046-.526-.32-.863-.324-1.2-.164-1.413.497-.659 1.37-1.777 1.64-2.136.05-.067.127-.008.162.048.183.26 1.868 4.792 2.537 6.965.038.15.081.274.171.357.078.059.27-.055.328-.132.029-.039.406-.62.661-.96.146-.193 1.415-1.756 2.502-3.198zm4.029-5.407c.094-.126.153-.324.056-.397-.087-.066-.235-.07-.49.085-.219.11-.356.111-.645-.09-.45-.309-.992-.718-1.473-1.066-.675-.493-1.167-.666-1.507-.679-.322-.016-.754.054-1.126.548-.46.609-.519 1.293-.542 1.746-.002.044-.039.092-.08.046a10.19 10.19 0 00-.411-.34c-.078-.058-.22.048-.24.077a1.401 1.401 0 00-.094.324c-.048.267-.152.584-.203.834-.027.116.043.305.111.357.02.014.073.024.248-.027.328-.132.507-.149.662-.032a44.07 44.07 0 012.134 1.7c.206.17.277.315.092.843-.044.119-.054.294.043.367.096.072.226.002.357-.172.117-.155.321-.487.547-.786.175-.233.423-.502.664-.821.13-.174.127-.33.05-.388s-.224-.046-.422.078c-.394.249-.521.196-.649.102l-2.289-1.725c-.115-.087-.15-.263-.154-.298.013-.278.137-.625.414-.993.299-.397.58-.488.78-.49.198-.002.554.13 1.28.677.426.32.843.635 1.31 1.002.235.192.27.325.174.632-.055.217-.014.323.044.366.126.095.257-.019.352-.144.087-.116.219-.35.43-.632.22-.29.481-.578.577-.704z"/><path stroke="#000" d="M1719.489 628.454c63.376 5.175 123.376-2.643 180-23.454m411-250l135 21"/></g></svg>